<svg width="50" height="50" viewBox="0 0 50 50" fill="none" xmlns="http://www.w3.org/2000/svg">
<rect width="50" height="50" rx="4" fill="#24263B"/>
<path d="M14 28.6577C15.6231 31.3768 18.187 33.4694 21.2425 34.4866C21.9096 34.6086 22.1527 34.1969 22.1527 33.8433C22.1527 33.6969 22.1502 33.4382 22.1469 33.092C22.1431 32.6911 22.1382 32.1729 22.1347 31.5759C18.426 32.3814 17.6435 29.7883 17.6435 29.7883C17.0369 28.2486 16.1627 27.8386 16.1627 27.8386C14.9521 27.011 16.2544 27.0274 16.2544 27.0274C17.5927 27.1224 18.2966 28.4017 18.2966 28.4017C19.4859 30.439 21.4177 29.8505 22.1772 29.51C22.2984 28.6481 22.6422 28.0604 23.0236 27.7272C20.063 27.3908 16.9502 26.2465 16.9502 21.1373C16.9502 19.682 17.4699 18.4918 18.3228 17.5596C18.1853 17.2223 17.7278 15.8668 18.453 14.0309C18.453 14.0309 19.5727 13.6724 22.12 15.3978C23.1832 15.1023 24.3242 14.9542 25.4579 14.9493C26.5899 14.9542 27.7309 15.1023 28.7958 15.3978C31.3414 13.6724 32.4587 14.0309 32.4587 14.0309C33.1864 15.8668 32.7288 17.2223 32.5913 17.5596C33.4459 18.4918 33.9623 19.682 33.9623 21.1373C33.9623 26.2596 30.8446 27.3867 27.8742 27.7166C28.353 28.1283 28.7795 28.9419 28.7795 30.1861C28.7795 31.3778 28.7721 32.4157 28.7673 33.1033C28.7649 33.4439 28.7631 33.6985 28.7631 33.8433C28.7631 34.2001 29.0029 34.6151 29.6798 34.485C32.1139 33.6725 34.2357 32.1779 35.8178 30.2279C33.3733 33.2415 29.6403 35.1676 25.4575 35.1676C20.5872 35.1676 16.3269 32.5564 14 28.6577Z" fill="white"/>
</svg>
