<svg width="50" height="50" viewBox="0 0 50 50" fill="none" xmlns="http://www.w3.org/2000/svg">
<rect width="50" height="50" rx="4" fill="#24263B"/>
<path fill-rule="evenodd" clip-rule="evenodd" d="M19.7968 18.8515C19.7968 19.8609 19.0429 20.6778 17.864 20.6778C16.7311 20.6778 15.9772 19.8609 16.0005 18.8515C15.9772 17.7931 16.731 17 17.8866 17C19.0429 17 19.7742 17.7931 19.7968 18.8515ZM16.0953 33.878V22.1206H19.6794V33.8773H16.0953V33.878Z" fill="white"/>
<path fill-rule="evenodd" clip-rule="evenodd" d="M22.0586 25.8788C22.0586 24.4123 22.0113 23.1621 21.9639 22.1281H25.077L25.2425 23.7389H25.3132C25.7849 22.9933 26.9638 21.8643 28.8739 21.8643C31.2317 21.8643 33.0005 23.4512 33.0005 26.912V33.8856H29.4164V27.3699C29.4164 25.8543 28.898 24.8211 27.601 24.8211C26.6102 24.8211 26.0211 25.5183 25.7856 26.191C25.6909 26.4318 25.6442 26.7678 25.6442 27.1052V33.8856H22.0601V25.8788H22.0586Z" fill="white"/>
</svg>
