<svg width="50" height="50" viewBox="0 0 50 50" fill="none" xmlns="http://www.w3.org/2000/svg">
<rect width="50" height="50" rx="4" fill="#24263B"/>
<path d="M37 16.6591L33.2069 33.7786C33.2069 33.7786 32.6757 34.9669 31.2149 34.395L22.4585 28.3865L19.2713 27.0125L13.9095 25.4008C13.9095 25.4008 13.0878 25.1409 13.0048 24.569C12.9218 23.9971 13.9344 23.6926 13.9344 23.6926L35.2487 16.2135C35.2487 16.206 37 15.5153 37 16.6591Z" fill="white"/>
<path d="M21.7771 33.5855C21.7771 33.5855 21.5198 33.5632 21.2044 32.6646C20.889 31.7659 19.2705 27.0125 19.2705 27.0125L32.1437 19.6968C32.1437 19.6968 32.8907 19.2957 32.8575 19.6968C32.8575 19.6968 32.9903 19.7711 32.5919 20.0979C32.1935 20.4321 22.4826 28.2454 22.4826 28.2454" fill="#D2E4F0"/>
<path d="M25.8116 30.6889L22.3505 33.5186C22.3505 33.5186 22.0766 33.7043 21.7861 33.5854L22.4501 28.3345" fill="#B5CFE4"/>
</svg>
